<?xml version="1.0" encoding="UTF-8" standalone="no"?>
<!-- Created with Inkscape (http://www.inkscape.org/) -->

<svg
   width="9.370657mm"
   height="56.839901mm"
   viewBox="0 0 9.370657 56.839901"
   version="1.1"
   id="svg1"
   inkscape:version="1.3.2 (091e20e, 2023-11-25, custom)"
   sodipodi:docname="kviz.svg"
   xmlns:inkscape="http://www.inkscape.org/namespaces/inkscape"
   xmlns:sodipodi="http://sodipodi.sourceforge.net/DTD/sodipodi-0.dtd"
   xmlns="http://www.w3.org/2000/svg"
   xmlns:svg="http://www.w3.org/2000/svg">
  <sodipodi:namedview
     id="namedview1"
     pagecolor="#ffffff"
     bordercolor="#000000"
     borderopacity="0.25"
     inkscape:showpageshadow="2"
     inkscape:pageopacity="0.0"
     inkscape:pagecheckerboard="true"
     inkscape:deskcolor="#d1d1d1"
     inkscape:document-units="mm"
     inkscape:zoom="1"
     inkscape:cx="-186"
     inkscape:cy="501.49999"
     inkscape:window-width="2560"
     inkscape:window-height="1369"
     inkscape:window-x="1912"
     inkscape:window-y="1072"
     inkscape:window-maximized="1"
     inkscape:current-layer="layer1" />
  <defs
     id="defs1" />
  <g
     inkscape:label="Layer 1"
     inkscape:groupmode="layer"
     id="layer1"
     transform="translate(-125.74391,-65.678483)">
    <path
       style="font-size:53.3333px;line-height:1.1;font-family:'Arial Rounded MT Bold';-inkscape-font-specification:'Arial Rounded MT Bold, ';text-align:center;text-anchor:middle;white-space:pre"
       d="m 365.41406,365.73883 -1.82292,-4.79166 h -15.52082 l -1.82292,4.89583 q -1.06771,2.86458 -1.82291,3.88021 -0.75521,0.98958 -2.47396,0.98958 -1.45833,0 -2.57812,-1.06771 -1.1198,-1.06771 -1.1198,-2.42187 0,-0.78125 0.26042,-1.61458 0.26042,-0.83334 0.85938,-2.31771 l 9.76561,-24.79165 q 0.41667,-1.06771 0.98959,-2.55209 0.59896,-1.51041 1.25,-2.49999 0.67708,-0.98959 1.74479,-1.58854 1.09375,-0.625 2.68229,-0.625 1.61458,0 2.68229,0.625 1.09375,0.59895 1.74479,1.56249 0.67708,0.96355 1.11979,2.08334 0.46875,1.09375 1.17187,2.9427 l 9.97396,24.63541 q 1.17187,2.81249 1.17187,4.08853 0,1.32813 -1.11979,2.44792 -1.09375,1.09375 -2.65625,1.09375 -0.91146,0 -1.5625,-0.33854 -0.65104,-0.3125 -1.09375,-0.85938 -0.44271,-0.57291 -0.96354,-1.71875 -0.49479,-1.17187 -0.85937,-2.05729 z m -15.31249,-10.59895 h 11.40624 l -5.75521,-15.7552 z m 7.18749,73.58849 H 345.6224 q -2.52604,0 -3.61979,-1.11979 -1.06771,-1.14583 -1.06771,-3.61979 v -28.6979 q 0,-2.52604 1.09375,-3.61979 1.1198,-1.11979 3.59375,-1.11979 h 12.36979 q 2.73437,0 4.73958,0.33854 2.0052,0.33855 3.59374,1.30209 1.35417,0.80729 2.39584,2.05729 1.04166,1.22396 1.58854,2.73437 0.54687,1.48438 0.54687,3.15104 0,5.72916 -5.72916,8.38541 7.52604,2.39583 7.52604,9.32291 0,3.20313 -1.64063,5.78125 -1.64062,2.55208 -4.42708,3.77604 -1.74479,0.72917 -4.01041,1.04167 -2.26563,0.28645 -5.28646,0.28645 z m -0.57291,-16.95311 h -8.04687 v 11.14583 h 8.30728 q 7.83854,0 7.83854,-5.65104 0,-2.89063 -2.03125,-4.19271 -2.03125,-1.30208 -6.0677,-1.30208 z m -8.04687,-15.41666 v 9.86979 h 7.08332 q 2.89063,0 4.45313,-0.54688 1.58854,-0.54687 2.42187,-2.08333 0.65104,-1.09375 0.65104,-2.44791 0,-2.89063 -2.05729,-3.82813 -2.05729,-0.96354 -6.27604,-0.96354 z m 24.28383,78.97912 q 0,1.82291 -0.91145,3.95833 -0.88542,2.10937 -2.8125,4.16666 -1.92708,2.03125 -4.92187,3.30729 -2.99479,1.27604 -6.97917,1.27604 -3.02083,0 -5.49478,-0.57292 -2.47396,-0.57291 -4.50521,-1.77083 -2.00521,-1.22396 -3.69791,-3.20312 -1.51042,-1.79687 -2.57813,-4.01041 -1.06771,-2.23959 -1.61458,-4.76563 -0.52083,-2.52604 -0.52083,-5.36458 0,-4.60937 1.32812,-8.2552 1.35417,-3.64583 3.85417,-6.22396 2.49999,-2.60416 5.85937,-3.95833 3.35937,-1.35416 7.16145,-1.35416 4.63541,0 8.2552,1.84896 3.61979,1.84895 5.54688,4.58333 1.92708,2.70833 1.92708,5.1302 0,1.32813 -0.9375,2.34375 -0.9375,1.01562 -2.26562,1.01562 -1.48438,0 -2.23959,-0.70312 -0.72916,-0.70313 -1.64062,-2.42187 -1.51042,-2.83854 -3.56771,-4.24479 -2.03125,-1.40625 -5.02604,-1.40625 -4.76562,0 -7.60416,3.61979 -2.8125,3.61979 -2.8125,10.28645 0,4.45312 1.25,7.42187 1.25,2.94271 3.54167,4.40104 2.29166,1.45833 5.36458,1.45833 3.33333,0 5.62499,-1.64062 2.31771,-1.66667 3.48959,-4.86979 0.49479,-1.51042 1.22395,-2.44792 0.72917,-0.96354 2.34375,-0.96354 1.38021,0 2.36979,0.96354 0.98958,0.96354 0.98958,2.39584 z m -27.73435,32.54685 h 10.07812 q 3.93228,0 6.74478,0.72916 2.8125,0.72917 5.10417,2.73437 5.96353,5.10417 5.96353,15.52083 0,3.4375 -0.59895,6.27604 -0.59896,2.83854 -1.84896,5.1302 -1.25,2.26563 -3.20312,4.0625 -1.53646,1.38021 -3.35938,2.21354 -1.82291,0.83333 -3.93229,1.17187 -2.08333,0.33855 -4.71353,0.33855 h -10.07812 q -2.10938,0 -3.17709,-0.625 -1.0677,-0.65105 -1.40624,-1.79688 -0.3125,-1.17187 -0.3125,-3.02083 v -27.99477 q 0,-2.5 1.11979,-3.61979 1.11979,-1.11979 3.61979,-1.11979 z m 2.99479,6.11978 v 25.91145 h 5.85937 q 1.92708,0 3.02083,-0.10417 1.09375,-0.10417 2.26562,-0.52083 1.17188,-0.41667 2.03125,-1.17188 3.88021,-3.28125 3.88021,-11.30207 0,-5.65104 -1.71875,-8.46354 -1.69271,-2.8125 -4.19271,-3.56771 -2.5,-0.78125 -6.04166,-0.78125 z"
       id="text2"
       transform="matrix(0.26458333,0,0,0.26458333,36.247916,-21.960416)"
       aria-label="A&#10;B&#10;C&#10;D" />
  </g>
</svg>
