<?xml version="1.0" encoding="UTF-8" standalone="no"?>
<!-- Created with Inkscape (http://www.inkscape.org/) -->

<svg
   width="46.511574mm"
   height="14.177252mm"
   viewBox="0 0 46.511569 14.17725"
   version="1.1"
   id="svg1"
   inkscape:version="1.3.2 (091e20e, 2023-11-25, custom)"
   sodipodi:docname="kviz.svg"
   xmlns:inkscape="http://www.inkscape.org/namespaces/inkscape"
   xmlns:sodipodi="http://sodipodi.sourceforge.net/DTD/sodipodi-0.dtd"
   xmlns="http://www.w3.org/2000/svg"
   xmlns:svg="http://www.w3.org/2000/svg">
  <sodipodi:namedview
     id="namedview1"
     pagecolor="#ffffff"
     bordercolor="#000000"
     borderopacity="0.25"
     inkscape:showpageshadow="2"
     inkscape:pageopacity="0.0"
     inkscape:pagecheckerboard="true"
     inkscape:deskcolor="#d1d1d1"
     inkscape:document-units="mm"
     inkscape:zoom="0.5"
     inkscape:cx="-802"
     inkscape:cy="1491"
     inkscape:window-width="2560"
     inkscape:window-height="1369"
     inkscape:window-x="1912"
     inkscape:window-y="-8"
     inkscape:window-maximized="1"
     inkscape:current-layer="layer1" />
  <defs
     id="defs1" />
  <g
     inkscape:label="Layer 1"
     inkscape:groupmode="layer"
     id="layer1"
     transform="translate(-113.88248,-114.0056)">
    <path
       style="font-size:85.3333px;line-height:1.1;font-family:Arial;-inkscape-font-specification:Arial;text-align:center;white-space:pre;stroke-width:0.264584"
       d="m 122.1948,126.70804 q -1.10243,0.80876 -2.12769,1.14179 -1.01423,0.33302 -2.18281,0.33302 -1.92925,0 -2.96554,-0.80877 -1.03628,-0.81828 -1.03628,-2.08377 0,-0.74216 0.38585,-1.35112 0.39688,-0.61847 1.02526,-0.98955 0.63941,-0.37109 1.43316,-0.56138 0.58429,-0.13321 1.76389,-0.25691 2.4033,-0.24739 3.5388,-0.58992 0.011,-0.35206 0.011,-0.44721 0,-1.04664 -0.56224,-1.47481 -0.76068,-0.58041 -2.25998,-0.58041 -1.40009,0 -2.07257,0.42817 -0.66146,0.41866 -0.98117,1.49385 l -1.94027,-0.22836 q 0.26458,-1.07519 0.87092,-1.73172 0.60633,-0.66605 1.75286,-1.0181 1.14653,-0.36157 2.65686,-0.36157 1.4993,0 2.43637,0.30448 0.93706,0.30448 1.37804,0.77071 0.44097,0.45672 0.61736,1.16082 0.0992,0.43769 0.0992,1.57948 v 2.28359 q 0,2.38824 0.12126,3.02574 0.13229,0.62799 0.50712,1.2084 h -2.07257 q -0.30868,-0.53283 -0.39687,-1.24645 z m -0.16536,-3.82501 q -1.08038,0.3806 -3.24115,0.64702 -1.22369,0.15224 -1.73081,0.34254 -0.50712,0.19029 -0.78273,0.56138 -0.27561,0.36156 -0.27561,0.80876 0,0.68508 0.59532,1.1418 0.60633,0.45671 1.76389,0.45671 1.14652,0 2.03949,-0.42817 0.89297,-0.43768 1.31189,-1.18936 0.31971,-0.58041 0.31971,-1.71269 z m 6.91223,5.07146 h -1.84105 V 114.0056 h 1.98437 v 4.97631 q 1.25677,-1.36064 3.20807,-1.36064 1.08038,0 2.03949,0.3806 0.97014,0.37108 1.5875,1.05616 0.62839,0.67556 0.98117,1.63657 0.35277,0.96101 0.35277,2.05522 0,2.59758 -1.48828,4.01531 -1.48828,1.41772 -3.57187,1.41772 -2.07257,0 -3.25217,-1.49385 z m -0.022,-5.12855 q 0,1.81736 0.57327,2.62612 0.93706,1.32258 2.53559,1.32258 1.30086,0 2.24895,-0.97052 0.94809,-0.98004 0.94809,-2.91157 0,-1.97911 -0.91502,-2.92109 -0.90399,-0.94198 -2.19383,-0.94198 -1.30087,0 -2.24896,0.98004 -0.94809,0.97053 -0.94809,2.81642 z m 18.38853,1.42724 1.9513,0.21885 q -0.3197,1.74123 -1.64262,2.73078 -1.31189,0.98004 -3.23012,0.98004 -2.40329,0 -3.86953,-1.35112 -1.4552,-1.36064 -1.4552,-3.89161 0,-1.63657 0.62838,-2.86399 0.62839,-1.22743 1.90721,-1.83639 1.28984,-0.61847 2.80017,-0.61847 1.9072,0 3.11987,0.83732 1.21268,0.8278 1.55443,2.3597 l -1.92925,0.2569 q -0.27561,-1.01809 -0.98116,-1.5319 -0.69453,-0.51381 -1.68672,-0.51381 -1.49931,0 -2.43637,0.93247 -0.93707,0.92295 -0.93707,2.9306 0,2.03619 0.904,2.95914 0.90399,0.92295 2.3592,0.92295 1.16857,0 1.9513,-0.61847 0.78272,-0.61847 0.99218,-1.90299 z m 11.24479,3.70131 v -1.275 q -1.11345,1.50336 -3.27422,1.50336 -1.40008,0 -2.57968,-0.66605 -1.16858,-0.66604 -1.81901,-1.85541 -0.63941,-1.19888 -0.63941,-2.74981 0,-1.51288 0.58429,-2.7403 0.58429,-1.23694 1.75286,-1.89347 1.16858,-0.65654 2.61276,-0.65654 1.05833,0 1.88516,0.39012 0.82682,0.38059 1.34496,0.99906 v -5.00485 h 1.97335 v 13.94889 z m -6.27283,-5.04291 q 0,1.94104 0.9481,2.90205 0.94809,0.96101 2.23793,0.96101 1.30087,0 2.20486,-0.91343 0.91502,-0.92295 0.91502,-2.80691 0,-2.07425 -0.92605,-3.04478 -0.92604,-0.97052 -2.28203,-0.97052 -1.32291,0 -2.21588,0.93246 -0.88195,0.93247 -0.88195,2.94012 z"
       id="text9-9"
       aria-label="abcd" />
  </g>
</svg>
