<?xml version="1.0" encoding="UTF-8" standalone="no"?>
<!-- Created with Inkscape (http://www.inkscape.org/) -->

<svg
   width="39.32917mm"
   height="10.445519mm"
   viewBox="0 0 39.32917 10.445519"
   version="1.1"
   id="svg1"
   xmlns="http://www.w3.org/2000/svg"
   xmlns:svg="http://www.w3.org/2000/svg">
  <defs
     id="defs1" />
  <g
     id="layer1"
     transform="translate(-141.81667,-176.74167)">
    <path
       style="font-size:53.3333px;line-height:1.1;font-family:'Arial Rounded MT Bold';-inkscape-font-specification:'Arial Rounded MT Bold, ';text-align:center;white-space:pre"
       d="m 329.50784,367.45758 -6.27603,-10.31249 -3.85417,3.64583 v 5.65104 q 0,2.05729 -1.09375,3.17708 -1.0677,1.09375 -2.47395,1.09375 -1.64063,0 -2.57813,-1.09375 -0.9375,-1.09375 -0.9375,-3.22917 v -30.31248 q 0,-2.36979 0.91146,-3.59374 0.91146,-1.25 2.60417,-1.25 1.64062,0 2.60416,1.11979 0.96354,1.11979 0.96354,3.30729 v 17.23957 l 7.99479,-8.38541 q 1.48437,-1.5625 2.26562,-2.13542 0.78125,-0.57291 1.90104,-0.57291 1.32813,0 2.21354,0.85937 0.88542,0.83333 0.88542,2.10937 0,1.5625 -2.89062,4.16667 l -3.77604,3.46354 7.29166,11.45832 q 0.80729,1.27605 1.14583,1.95313 0.36459,0.65104 0.36459,1.25 0,1.69271 -0.9375,2.68229 -0.91146,0.96354 -2.42188,0.96354 -1.30208,0 -2.0052,-0.70313 -0.70313,-0.70312 -1.90105,-2.55208 z m 17.89062,-21.22394 5.7552,16.14582 6.19792,-16.84895 q 0.72916,-2.03125 1.43229,-2.86458 0.70312,-0.85937 2.13541,-0.85937 1.35417,0 2.29167,0.91145 0.96354,0.91146 0.96354,2.10938 0,0.46875 -0.18229,1.09375 -0.15625,0.625 -0.39063,1.17187 -0.20833,0.54688 -0.49479,1.25 l -6.82291,16.92707 q -0.28646,0.72917 -0.75521,1.84896 -0.44271,1.11979 -1.01562,1.92708 -0.54688,0.78125 -1.38021,1.22396 -0.80729,0.44271 -1.97917,0.44271 -1.51041,0 -2.42187,-0.67708 -0.88542,-0.70313 -1.32812,-1.51042 -0.41667,-0.83333 -1.43229,-3.25521 l -6.77083,-16.74478 q -0.23438,-0.625 -0.49479,-1.25 -0.23438,-0.625 -0.41667,-1.27604 -0.15625,-0.65104 -0.15625,-1.11979 0,-0.72917 0.44271,-1.43229 0.44271,-0.72917 1.22395,-1.17187 0.78125,-0.46875 1.69271,-0.46875 1.77083,0 2.42188,1.01562 0.67708,1.01563 1.48437,3.41146 z m 30.98957,-0.39063 v 20.54686 q 0,2.13542 -1.01563,3.22917 -1.01562,1.09375 -2.57812,1.09375 -1.5625,0 -2.55208,-1.11979 -0.96354,-1.11979 -0.96354,-3.20313 v -20.33852 q 0,-2.10938 0.96354,-3.17709 0.98958,-1.0677 2.55208,-1.0677 1.5625,0 2.57812,1.0677 1.01563,1.06771 1.01563,2.96875 z m -3.51563,-7.34374 q -1.48437,0 -2.55208,-0.91146 -1.04166,-0.91146 -1.04166,-2.57812 0,-1.51042 1.0677,-2.47396 1.09375,-0.98958 2.52604,-0.98958 1.38021,0 2.44792,0.88541 1.06771,0.88542 1.06771,2.57813 0,1.64062 -1.04167,2.57812 -1.04167,0.91146 -2.47396,0.91146 z m 30.18228,11.45832 -13.02083,14.55729 h 13.93229 q 1.6927,0 2.55208,0.80729 0.85937,0.78125 0.85937,2.03125 0,1.19791 -0.85937,1.95312 -0.83333,0.75521 -2.55208,0.75521 h -19.27083 q -2.03124,0 -3.04687,-0.88542 -0.98958,-0.88541 -0.98958,-2.42187 0,-0.91146 0.70312,-1.82292 0.70313,-0.9375 2.91667,-3.41145 2.34375,-2.60417 4.24479,-4.71354 1.92708,-2.10938 3.5677,-3.93229 1.64063,-1.84896 2.70833,-3.125 1.09375,-1.27604 1.7448,-2.1875 h -10.57291 q -2.1875,0 -3.30729,-0.39062 -1.1198,-0.39063 -1.1198,-2.05729 0,-1.22396 0.83334,-1.95313 0.85937,-0.72916 2.42187,-0.72916 h 16.32812 q 2.26562,0 3.46354,0.67708 1.22395,0.65104 1.22395,2.36979 0,0.57292 -0.23437,1.19792 -0.23438,0.59895 -0.52083,0.98958 -0.28646,0.39062 -0.78125,0.96354 -0.4948,0.54687 -1.22396,1.32812 z m 13.17707,20.7552 q -1.61458,0 -2.78646,-1.04167 -1.17187,-1.04166 -1.17187,-2.91666 0,-1.58854 1.11979,-2.73438 1.11979,-1.14583 2.76042,-1.14583 1.64062,0 2.78645,1.14583 1.17188,1.1198 1.17188,2.73438 0,1.84896 -1.17188,2.91666 -1.14583,1.04167 -2.70833,1.04167 z m 19.08853,-24.86978 v 20.54686 q 0,2.13542 -1.01563,3.22917 -1.01562,1.09375 -2.57812,1.09375 -1.5625,0 -2.55208,-1.11979 -0.96354,-1.11979 -0.96354,-3.20313 v -20.33852 q 0,-2.10938 0.96354,-3.17709 0.98958,-1.0677 2.55208,-1.0677 1.5625,0 2.57812,1.0677 1.01563,1.06771 1.01563,2.96875 z m -3.51563,-7.34374 q -1.48437,0 -2.55208,-0.91146 -1.04166,-0.91146 -1.04166,-2.57812 0,-1.51042 1.0677,-2.47396 1.09375,-0.98958 2.52604,-0.98958 1.38021,0 2.44792,0.88541 1.06771,0.88542 1.06771,2.57813 0,1.64062 -1.04167,2.57812 -1.04166,0.91146 -2.47396,0.91146 z m 11.25,3.93229 h 0.78125 v -4.27083 q 0,-1.71875 0.0781,-2.68229 0.10417,-0.98959 0.52084,-1.69271 0.41666,-0.72917 1.19791,-1.17188 0.78125,-0.46875 1.74479,-0.46875 1.35417,0 2.44792,1.01563 0.72916,0.67708 0.91146,1.66666 0.20833,0.96354 0.20833,2.76042 v 4.84375 h 2.60416 q 1.51042,0 2.29167,0.72916 0.80729,0.70313 0.80729,1.82292 0,1.43229 -1.14583,2.0052 -1.11979,0.57292 -3.22917,0.57292 h -1.32812 v 13.07291 q 0,1.66667 0.10417,2.57812 0.1302,0.88542 0.625,1.45834 0.52083,0.54687 1.66666,0.54687 0.625,0 1.69271,-0.20833 1.06771,-0.23438 1.66666,-0.23438 0.85938,0 1.53646,0.70313 0.70313,0.67708 0.70313,1.6927 0,1.71875 -1.875,2.63021 -1.875,0.91146 -5.39062,0.91146 -3.33334,0 -5.05208,-1.11979 -1.71875,-1.11979 -2.26563,-3.09896 -0.52083,-1.97916 -0.52083,-5.28645 v -13.64583 h -0.9375 q -1.53646,0 -2.34375,-0.72917 -0.80729,-0.72916 -0.80729,-1.84895 0,-1.11979 0.83333,-1.82292 0.85938,-0.72916 2.47396,-0.72916 z"
       id="text2-9-8"
       transform="matrix(0.26458333,0,0,0.26458333,59.188794,89.102765)"
       aria-label="kviz.it" />
  </g>
</svg>
